<svg width="75" height="89" viewBox="0 0 75 89" fill="none" xmlns="http://www.w3.org/2000/svg">
<g clip-path="url(#clip0_343_2274)">
<path d="M8.07452 13.1804H31.3664C35.942 13.1804 40.3312 14.9932 43.5732 18.2219L52.5332 27.1449C57.9035 32.493 60.9223 39.76 60.9223 47.339V81.268C60.9223 84.6863 58.106 87.5 54.6584 87.5H8.07452C4.62691 87.5 1.81055 84.6863 1.81055 81.268V19.4124C1.81055 15.9941 4.62691 13.1804 8.07452 13.1804Z" fill="white" stroke="black" stroke-width="3"/>
<path d="M54.5735 3.11394C53.6342 2.16353 52.3536 1.62866 51.0173 1.62866H18.1677C13.8975 1.62866 10.4037 5.10804 10.4037 9.36064V71.2165C10.4037 75.4687 13.8975 78.9481 18.1677 78.9481H64.7515C69.0219 78.9481 72.5157 75.4687 72.5157 71.2165V23.3218C72.5157 22.0059 71.9969 20.743 71.0719 19.8071L54.5735 3.11394Z" fill="white" stroke="black" stroke-width="3"/>
<path d="M71.1307 20.2073L71.5817 22.0114L56.2023 22.1027C52.5404 22.1244 49.5833 19.1183 49.6653 15.4572L49.9668 2H51.0001H52.2566L53.3352 2.3595L54.5444 3.16569L55.4394 4.06066L58.9394 7.56066L62.9394 11.5607L68.3987 17.0199L71.1307 20.2073Z" stroke="black" stroke-width="3" stroke-linejoin="round"/>
</g>
<defs>
<clipPath id="clip0_343_2274">
<rect width="75" height="89" fill="white"/>
</clipPath>
</defs>
</svg>
